HIERARCHY
ROOT hip
{
  OFFSET 0 0 0
  CHANNELS 6 Xposition Yposition Zposition Zrotation Yrotation Xrotation
  JOINT abdomen
  {
    OFFSET 0 20.6881 -0.73152
    CHANNELS 3 Zrotation Xrotation Yrotation
    JOINT chest
    {
      OFFSET 0 11.7043 -0.48768
      CHANNELS 3 Zrotation Xrotation Yrotation
      JOINT neck
      {
        OFFSET 0 22.1894 -2.19456
        CHANNELS 3 Zrotation Xrotation Yrotation
        JOINT head
        {
          OFFSET -0.24384 7.07133 1.2192
          CHANNELS 3 Zrotation Xrotation Yrotation
          JOINT leftEye
          {
            OFFSET 4.14528 8.04674 8.04672
            CHANNELS 3 Zrotation Xrotation Yrotation
            End Site
            {
              OFFSET 1 0 0
            }
          }
          JOINT rightEye
          {
            OFFSET -3.6576 8.04674 8.04672
            CHANNELS 3 Zrotation Xrotation Yrotation
            End Site
            {
              OFFSET 1 0 0
            }
          }
        }
      }
      JOINT rCollar
      {
        OFFSET -2.68224 19.2634 -4.8768
        CHANNELS 3 Zrotation Xrotation Yrotation
        JOINT rShldr
        {
          OFFSET -8.77824 -1.95073 1.46304
          CHANNELS 3 Zrotation Xrotation Yrotation
          JOINT rForeArm
          {
            OFFSET -28.1742 -1.7115 0.48768
            CHANNELS 3 Zrotation Xrotation Yrotation
            JOINT rHand
            {
              OFFSET -22.5879 0.773209 7.07136
              CHANNELS 3 Zrotation Xrotation Yrotation
              JOINT rThumb1
              {
                OFFSET -1.2192 -0.487915 3.41376
                CHANNELS 3 Zrotation Xrotation Yrotation
                JOINT rThumb2
                {
                  OFFSET -3.37035 -0.52449 3.41376
                  CHANNELS 3 Zrotation Xrotation Yrotation
                  End Site
                  {
                    OFFSET -1.78271 -1.18214 1.43049
                  }
                }
              }
              JOINT rIndex1
              {
                OFFSET -7.75947 0.938293 5.60832
                CHANNELS 3 Zrotation Xrotation Yrotation
                JOINT rIndex2
                {
                  OFFSET -2.54057 -0.884171 1.56538
                  CHANNELS 3 Zrotation Xrotation Yrotation
                  End Site
                  {
                    OFFSET -1.62519 -0.234802 1.16502
                  }
                }
              }
              JOINT rMid1
              {
                OFFSET -8.24714 1.18213 3.41376
                CHANNELS 3 Zrotation Xrotation Yrotation
                JOINT rMid2
                {
                  OFFSET -3.10165 -0.590103 1.0647
                  CHANNELS 3 Zrotation Xrotation Yrotation
                  End Site
                  {
                    OFFSET -2.48547 -0.328903 0.83742
                  }
                }
              }
              JOINT rRing1
              {
                OFFSET -8.82822 0.546677 1.51678
                CHANNELS 3 Zrotation Xrotation Yrotation
                JOINT rRing2
                {
                  OFFSET -2.60934 -0.819778 -0.0198488
                  CHANNELS 3 Zrotation Xrotation Yrotation
                  End Site
                  {
                    OFFSET -2.33842 -0.294052 0.168128
                  }
                }
              }
              JOINT rPinky1
              {
                OFFSET -8.27202 -0.0477905 -0.4584
                CHANNELS 3 Zrotation Xrotation Yrotation
                JOINT rPinky2
                {
                  OFFSET -1.82734 -0.647385 -0.700984
                  CHANNELS 3 Zrotation Xrotation Yrotation
                  End Site
                  {
                    OFFSET -1.69225 -0.51767 -0.607171
                  }
                }
              }
            }
          }
        }
      }
      JOINT lCollar
      {
        OFFSET 2.68224 19.2634 -4.8768
        CHANNELS 3 Zrotation Xrotation Yrotation
        JOINT lShldr
        {
          OFFSET 8.77824 -1.95073 1.46304
          CHANNELS 3 Zrotation Xrotation Yrotation
          JOINT lForeArm
          {
            OFFSET 28.1742 -1.7115 0.48768
            CHANNELS 3 Zrotation Xrotation Yrotation
            JOINT lHand
            {
              OFFSET 22.5879 0.773209 7.07136
              CHANNELS 3 Zrotation Xrotation Yrotation
              JOINT lThumb1
              {
                OFFSET 1.2192 -0.487915 3.41376
                CHANNELS 3 Zrotation Xrotation Yrotation
                JOINT lThumb2
                {
                  OFFSET 3.37035 -0.52449 3.41376
                  CHANNELS 3 Zrotation Xrotation Yrotation
                  End Site
                  {
                    OFFSET 1.78271 -1.18214 1.43049
                  }
                }
              }
              JOINT lIndex1
              {
                OFFSET 7.75947 0.938293 5.60832
                CHANNELS 3 Zrotation Xrotation Yrotation
                JOINT lIndex2
                {
                  OFFSET 2.54057 -0.884171 1.56538
                  CHANNELS 3 Zrotation Xrotation Yrotation
                  End Site
                  {
                    OFFSET 1.62519 -0.234802 1.16502
                  }
                }
              }
              JOINT lMid1
              {
                OFFSET 8.24714 1.18213 3.41376
                CHANNELS 3 Zrotation Xrotation Yrotation
                JOINT lMid2
                {
                  OFFSET 3.10165 -0.590103 1.0647
                  CHANNELS 3 Zrotation Xrotation Yrotation
                  End Site
                  {
                    OFFSET 2.48547 -0.328903 0.83742
                  }
                }
              }
              JOINT lRing1
              {
                OFFSET 8.82822 0.546677 1.51678
                CHANNELS 3 Zrotation Xrotation Yrotation
                JOINT lRing2
                {
                  OFFSET 2.60934 -0.819778 -0.0198488
                  CHANNELS 3 Zrotation Xrotation Yrotation
                  End Site
                  {
                    OFFSET 2.33842 -0.294052 0.168128
                  }
                }
              }
              JOINT lPinky1
              {
                OFFSET 8.27202 -0.0477905 -0.4584
                CHANNELS 3 Zrotation Xrotation Yrotation
                JOINT lPinky2
                {
                  OFFSET 1.82734 -0.647385 -0.700984
                  CHANNELS 3 Zrotation Xrotation Yrotation
                  End Site
                  {
                    OFFSET 1.69225 -0.51767 -0.607171
                  }
                }
              }
            }
          }
        }
      }
    }
  }
  JOINT rButtock
  {
    OFFSET -8.77824 4.35084 1.2192
    CHANNELS 3 Zrotation Xrotation Yrotation
    JOINT rThigh
    {
      OFFSET 0 -1.70687 -2.19456
      CHANNELS 3 Zrotation Xrotation Yrotation
      JOINT rShin
      {
        OFFSET 0 -36.8199 0.73152
        CHANNELS 3 Zrotation Xrotation Yrotation
        JOINT rFoot
        {
          OFFSET 0.73152 -45.1104 -5.12064
          CHANNELS 3 Zrotation Xrotation Yrotation
          End Site
          {
            OFFSET -1.1221 -3.69964 12.103
          }
        }
      }
    }
  }
  JOINT lButtock
  {
    OFFSET 8.77824 4.35084 1.2192
    CHANNELS 3 Zrotation Xrotation Yrotation
    JOINT lThigh
    {
      OFFSET 0 -1.70687 -2.19456
      CHANNELS 3 Zrotation Xrotation Yrotation
      JOINT lShin
      {
        OFFSET 0 -36.8199 0.73152
        CHANNELS 3 Zrotation Xrotation Yrotation
        JOINT lFoot
        {
          OFFSET -0.73152 -45.1104 -5.12064
          CHANNELS 3 Zrotation Xrotation Yrotation
          End Site
          {
            OFFSET 1.1221 -3.69964 12.103
          }
        }
      }
    }
  }
}
MOTION
Frames:	5
Frame Time:	0.00833333
5.69155 84.5822 -49.7064 0.1353 3.5085 4.8906 -1.72455 13.5121 -1.8196 5.18315 -4.25609 -0.367434 9.48191 -9.15081 2.14292 -15.1167 4.3674 0.716265 -0.0 0.0 0.0 -0.0 0.0 0.0 3.70955e-14 -1.66784e-13 -9.52241e-14 27.5514 -22.1421 -10.7278 -15.5402 -8.26699 28.7078 -0.0349997 -5.3349 -0.751963 1.30309e-09 -1.92555e-09 -4.03355e-10 2.25727e-09 -3.33406e-09 -6.98119e-10 1.3031e-09 -1.92555e-09 -4.03365e-10 7.73091 5.47488 0.417314 1.30309e-09 -1.92555e-09 -4.03352e-10 2.90554 0.965183 0.102902 1.30309e-09 -1.92555e-09 -4.03349e-10 10.2786 0.731801 0.0259123 1.30309e-09 -1.92555e-09 -4.03336e-10 2.22167 -0.733487 -0.20892 3.70808e-14 -1.66776e-13 -9.55052e-14 -39.0949 -21.81 7.88909 15.8114 -8.51312 -29.2754 0.000202796 -0.409725 0.0575841 -1.4885e-09 -9.17039e-10 -1.34235e-09 -2.57408e-09 -1.58446e-09 -2.3201e-09 -1.4885e-09 -9.1704e-10 -1.34234e-09 -7.73091 5.47488 -0.417314 -1.4885e-09 -9.17039e-10 -1.34235e-09 -2.90554 0.965183 -0.102902 -1.48851e-09 -9.1704e-10 -1.34235e-09 -10.2786 0.731801 -0.0259123 -1.48849e-09 -9.1704e-10 -1.34236e-09 -2.22167 -0.733487 0.20892 -2.03217e-16 0.0 -3.88251e-19 -11.7768 -33.8991 -9.78247 -0.142414 26.8173 0.351363 -2.18429 -2.38379 -13.8988 2.03217e-16 0.0 3.88251e-19 2.1985 -10.1332 -2.29195 0.126575 26.5965 -0.467021 2.55848 -5.68504 12.8653
5.6838 84.5904 -49.249 0.3732 3.5917 4.8808 -1.71625 13.4161 -1.78301 5.26124 -4.22418 -0.354371 9.40179 -9.11692 2.09305 -15.2818 4.39641 0.667912 -0.0 0.0 0.0 -0.0 0.0 0.0 4.05975e-14 -1.65393e-13 -1.06499e-13 27.7526 -22.2146 -10.7062 -15.4912 -8.22294 28.6057 -0.0329724 -5.17609 -0.729457 1.43609e-09 -2.05548e-09 -3.6182e-10 2.48753e-09 -3.55863e-09 -6.26149e-10 1.4361e-09 -2.05548e-09 -3.61829e-10 7.73091 5.47488 0.417314 1.4361e-09 -2.05548e-09 -3.61817e-10 2.90554 0.965183 0.102902 1.4361e-09 -2.05548e-09 -3.61813e-10 10.2786 0.731801 0.0259123 1.43609e-09 -2.05548e-09 -3.61798e-10 2.22167 -0.733487 -0.20892 4.06087e-14 -1.65384e-13 -1.06747e-13 -38.7469 -21.7743 7.78038 15.888 -8.5836 -29.4365 0.000281638 -0.479191 0.0673474 -1.57073e-09 -9.47781e-10 -1.47913e-09 -2.71637e-09 -1.63713e-09 -2.55688e-09 -1.57073e-09 -9.47782e-10 -1.47913e-09 -7.73091 5.47488 -0.417314 -1.57073e-09 -9.4778e-10 -1.47913e-09 -2.90554 0.965183 -0.102902 -1.57073e-09 -9.47781e-10 -1.47913e-09 -10.2786 0.731801 -0.0259123 -1.57072e-09 -9.47782e-10 -1.47915e-09 -2.22167 -0.733487 0.20892 -2.03217e-16 0.0 -3.88251e-19 -11.8537 -33.8964 -9.30774 -0.13393 26.0452 0.332676 -2.29009 -2.55974 -14.4723 2.03217e-16 0.0 3.88251e-19 2.06014 -9.58849 -2.32393 0.124667 26.1794 -0.451475 2.5378 -5.68484 12.7631
5.67498 84.5714 -48.7911 0.6215 3.6752 4.8653 -1.69864 13.3324 -1.74619 5.32911 -4.19942 -0.341021 9.30509 -9.11444 2.04268 -15.4292 4.4725 0.626482 -0.0 0.0 0.0 -0.0 0.0 0.0 3.76007e-14 -1.54658e-13 -9.22695e-14 27.9353 -22.3193 -10.6912 -15.4465 -8.18295 28.5128 -0.0313522 -5.04533 -0.710934 1.618e-09 -2.02069e-09 -1.79893e-10 2.80154e-09 -3.49776e-09 -3.10732e-10 1.618e-09 -2.02069e-09 -1.799e-10 7.73091 5.47488 0.417314 1.618e-09 -2.02069e-09 -1.79889e-10 2.90554 0.965183 0.102902 1.618e-09 -2.02069e-09 -1.79886e-10 10.2786 0.731801 0.0259123 1.61799e-09 -2.02069e-09 -1.79872e-10 2.22167 -0.733487 -0.20892 3.75959e-14 -1.54651e-13 -9.25176e-14 -38.3861 -21.752 7.68729 15.9674 -8.65699 -29.6036 0.000364595 -0.538194 0.0756406 -1.56375e-09 -1.06326e-09 -1.3461e-09 -2.70445e-09 -1.83722e-09 -2.32656e-09 -1.56375e-09 -1.06326e-09 -1.3461e-09 -7.73091 5.47488 -0.417314 -1.56375e-09 -1.06326e-09 -1.3461e-09 -2.90554 0.965183 -0.102902 -1.56375e-09 -1.06326e-09 -1.34611e-09 -10.2786 0.731801 -0.0259123 -1.56374e-09 -1.06326e-09 -1.34612e-09 -2.22167 -0.733487 0.20892 -2.03217e-16 0.0 -3.88251e-19 -11.9603 -33.9025 -8.92845 -0.127566 25.4554 0.318629 -2.42064 -2.75676 -15.1341 2.03217e-16 0.0 3.88251e-19 1.92329 -9.06857 -2.3156 0.123037 25.8203 -0.43861 2.51681 -5.70986 12.6271
5.66374 84.5407 -48.3269 0.8692 3.7597 4.8374 -1.67962 13.2592 -1.7105 5.3909 -4.18026 -0.328027 9.19613 -9.12732 1.99106 -15.5697 4.5771 0.589163 -0.0 0.0 0.0 -0.0 0.0 0.0 3.04655e-14 -1.35572e-13 -6.14307e-14 28.0971 -22.4539 -10.6857 -15.4045 -8.14545 28.4253 -0.0299852 -4.93439 -0.695223 1.81669e-09 -1.86165e-09 1.04007e-10 3.144e-09 -3.22158e-09 1.8145e-10 1.8167e-09 -1.86166e-09 1.04004e-10 7.73091 5.47488 0.417314 1.81669e-09 -1.86165e-09 1.04011e-10 2.90554 0.965183 0.102902 1.8167e-09 -1.86166e-09 1.04011e-10 10.2786 0.731801 0.0259123 1.81669e-09 -1.86165e-09 1.04022e-10 2.22167 -0.733487 -0.20892 3.04205e-14 -1.3557e-13 -6.16947e-14 -38.0109 -21.7418 7.60653 16.0492 -8.73306 -29.7763 0.000446226 -0.590268 0.0829599 -1.47505e-09 -1.22177e-09 -1.03132e-09 -2.55119e-09 -2.11225e-09 -1.78165e-09 -1.47505e-09 -1.22177e-09 -1.03131e-09 -7.73091 5.47488 -0.417314 -1.47505e-09 -1.22177e-09 -1.03132e-09 -2.90554 0.965183 -0.102902 -1.47505e-09 -1.22177e-09 -1.03132e-09 -10.2786 0.731801 -0.0259123 -1.47504e-09 -1.22177e-09 -1.03133e-09 -2.22167 -0.733487 0.20892 -2.03217e-16 0.0 -3.88251e-19 -12.1045 -33.9117 -8.62311 -0.122649 25.0389 0.308697 -2.58235 -2.99481 -15.8799 2.03217e-16 0.0 3.88251e-19 1.77715 -8.56655 -2.27722 0.121548 25.5075 -0.427645 2.49465 -5.75585 12.4598
5.65447 84.4967 -47.8586 1.1311 3.8464 4.8016 -1.65701 13.192 -1.68117 5.44667 -4.16158 -0.316983 9.08288 -9.13871 1.94048 -15.7113 4.68374 0.55634 -0.0 0.0 0.0 -0.0 0.0 0.0 2.16929e-14 -1.08734e-13 -3.07875e-14 28.2433 -22.5971 -10.6858 -15.3655 -8.11077 28.3442 -0.0287372 -4.83236 -0.680776 1.89335e-09 -1.57117e-09 3.62773e-10 3.27532e-09 -2.71792e-09 6.30082e-10 1.89335e-09 -1.57118e-09 3.62775e-10 7.73091 5.47488 0.417314 1.89335e-09 -1.57117e-09 3.62777e-10 2.90554 0.965183 0.102902 1.89335e-09 -1.57117e-09 3.62775e-10 10.2786 0.731801 0.0259123 1.89334e-09 -1.57117e-09 3.62783e-10 2.22167 -0.733487 -0.20892 2.15994e-14 -1.08737e-13 -3.10721e-14 -37.6254 -21.7438 7.54211 16.1311 -8.80968 -29.9498 0.000531929 -0.647828 0.0910504 -1.2945e-09 -1.27282e-09 -6.67577e-10 -2.23903e-09 -2.20138e-09 -1.15219e-09 -1.2945e-09 -1.27282e-09 -6.67571e-10 -7.73091 5.47488 -0.417314 -1.2945e-09 -1.27282e-09 -6.67577e-10 -2.90554 0.965183 -0.102902 -1.2945e-09 -1.27282e-09 -6.67576e-10 -10.2786 0.731801 -0.0259123 -1.2945e-09 -1.27282e-09 -6.67585e-10 -2.22167 -0.733487 0.20892 -2.03217e-16 0.0 -3.88251e-19 -12.2791 -33.9135 -8.38755 -0.119217 24.7766 0.302135 -2.748 -3.22591 -16.6 2.03217e-16 0.0 3.88251e-19 1.62413 -8.08386 -2.22247 0.120338 25.2517 -0.418855 2.47063 -5.81724 12.2651
